<svg width="204" height="27" viewBox="0 0 204 27" fill="none" xmlns="http://www.w3.org/2000/svg">
<path d="M101.547 9.58189C101.095 8.52651 100.369 7.61148 99.4432 6.932C98.5469 6.2895 97.4677 5.95249 96.3651 5.97078C95.7993 5.95851 95.2384 6.07824 94.7269 6.32048C94.2556 6.55671 93.8535 6.91108 93.56 7.34902V2.26803L89.3523 0.397949V20.6509H93.56V19.5569C93.7921 20.0105 94.1472 20.3897 94.5848 20.6509C95.0569 20.8918 95.5829 21.0077 96.1126 20.9875C98.0475 20.9875 99.5648 20.3236 100.664 18.9959C101.764 17.6681 102.313 15.8261 102.312 13.4698C102.339 12.134 102.078 10.808 101.547 9.58189ZM97.4591 16.0131C97.2551 16.3039 96.9811 16.5386 96.6624 16.6955C96.3437 16.8524 95.9906 16.9264 95.6357 16.9107C95.2094 16.9285 94.7836 16.865 94.3809 16.7237C94.0607 16.5851 93.779 16.3707 93.56 16.0991V10.8797C93.7875 10.5995 94.0849 10.3841 94.4221 10.2551C94.8091 10.106 95.221 10.0324 95.6357 10.0382C95.9898 10.0224 96.3423 10.0956 96.6608 10.2511C96.9793 10.4066 97.2538 10.6394 97.4591 10.9283C97.8892 11.523 98.1042 12.3671 98.1042 13.4604C98.1042 14.5538 97.8892 15.4047 97.4591 16.0131Z" fill="#F3F8FF"/>
<path d="M87.4822 6.44413C86.9244 6.12603 86.2917 5.96269 85.6496 5.97101C85.0811 5.98761 84.5281 6.15965 84.0506 6.46845C83.5634 6.73492 83.1639 7.13703 82.9005 7.62602V6.30762H78.6929V20.6418H82.9005V12.9595C82.8846 12.4074 82.9827 11.8581 83.1885 11.3456C83.3539 10.9314 83.6458 10.58 84.0226 10.3414C84.4311 10.1056 84.8976 9.98897 85.369 10.0048C85.8125 9.99843 86.2531 10.0771 86.6669 10.2366C86.9599 10.3734 87.2339 10.5476 87.4822 10.7547V6.44413Z" fill="#F3F8FF"/>
<path d="M142.227 8.80379C142.518 8.15293 142.885 7.53897 143.321 6.97485C142.637 6.31489 141.72 5.95305 140.77 5.96875C140.202 5.98536 139.649 6.1574 139.171 6.46619C138.684 6.73267 138.284 7.13478 138.021 7.62377V6.30724H133.812V20.6414H138.019V12.9591C138.001 12.4064 138.097 11.8559 138.3 11.3415C138.469 10.9278 138.764 10.5778 139.143 10.341C139.552 10.1052 140.018 9.98859 140.49 10.0044C140.912 9.99935 141.332 10.0709 141.729 10.2157C141.86 9.7333 142.026 9.26135 142.227 8.80379Z" fill="#F3F8FF"/>
<path d="M26.0127 20.9784C24.5914 20.9784 23.369 20.6792 22.3455 20.0808C21.3172 19.4786 20.4956 18.5788 19.9892 17.5001C19.4406 16.378 19.167 15.0316 19.1682 13.4607C19.1682 11.936 19.4462 10.6126 20.0023 9.49055C20.5213 8.41024 21.3457 7.50583 22.3735 6.88928C23.3971 6.27838 24.6101 5.97232 26.0127 5.97107C27.152 5.95355 28.2792 6.20604 29.3022 6.70788C30.286 7.20513 31.0973 7.98711 31.6304 8.95197C32.2039 9.95682 32.4913 11.226 32.4925 12.7594C32.4925 13.0213 32.4925 13.3466 32.4794 13.7338C32.4699 14.1213 32.4368 14.5078 32.3803 14.8913H23.2637C23.2519 15.36 23.3683 15.8229 23.6003 16.2303C23.8251 16.6101 24.1568 16.9152 24.554 17.1074C25.0095 17.3227 25.5091 17.4284 26.0127 17.4159C26.6415 17.4357 27.2668 17.3156 27.8435 17.0644C28.3949 16.7818 28.8799 16.3853 29.2666 15.9012L31.679 18.3136C31.0165 19.1157 30.1984 19.7754 29.2741 20.2528C28.2614 20.7542 27.1424 21.0032 26.0127 20.9784ZM23.3198 11.7496H28.4812C28.4274 11.3117 28.2794 10.8906 28.0473 10.5154C27.8374 10.194 27.5403 9.93912 27.1908 9.78041C26.7833 9.60704 26.3432 9.52349 25.9005 9.53543C25.2734 9.51631 24.6606 9.72565 24.1763 10.1245C23.6967 10.5393 23.3909 11.1195 23.3198 11.7496Z" fill="#F3F8FF"/>
<path d="M38.6078 20.9781C37.0282 20.9781 35.7777 20.5598 34.8564 19.7232C33.9351 18.8867 33.4744 17.7646 33.4744 16.3571C33.4602 15.4897 33.7179 14.6396 34.2112 13.926C34.7299 13.2026 35.4386 12.6369 36.259 12.2916C37.2238 11.8865 38.2629 11.6884 39.3091 11.71C39.8845 11.71 40.4591 11.7544 41.0277 11.8427C41.5064 11.9092 41.975 12.0349 42.4227 12.2168V11.3846C42.4387 11.1162 42.391 10.8479 42.2834 10.6015C42.1758 10.3551 42.0115 10.1377 41.8038 9.96705C41.3873 9.63542 40.8001 9.46961 40.0421 9.46961C39.2997 9.47366 38.563 9.60003 37.8616 9.84362C37.0311 10.1387 36.2378 10.5297 35.4979 11.0087L34.2075 7.7828C35.1131 7.1862 36.1035 6.72975 37.1454 6.42887C38.214 6.11665 39.3216 5.95859 40.4349 5.95948C42.5007 5.95948 44.046 6.42949 45.0708 7.36951C46.0956 8.30954 46.6074 9.71895 46.6061 11.5978V20.6302H42.4227V19.5923C41.9701 20.055 41.4155 20.4053 40.8033 20.6153C40.0979 20.8623 39.3551 20.985 38.6078 20.9781ZM39.7018 17.4717C40.2052 17.4748 40.7055 17.3919 41.181 17.2267C41.6347 17.0681 42.0555 16.8279 42.4227 16.5179V15.3398C42.0554 15.2029 41.6751 15.1039 41.2876 15.0443C40.8651 14.9783 40.438 14.9458 40.0104 14.9471C39.2536 14.9471 38.662 15.0661 38.2356 15.3042C38.0439 15.396 37.8822 15.5403 37.7693 15.7204C37.6564 15.9005 37.597 16.109 37.5979 16.3216C37.5984 16.5007 37.6502 16.676 37.7474 16.8265C37.8445 16.977 37.9828 17.0964 38.1459 17.1706C38.5099 17.3713 39.0286 17.4717 39.7018 17.4717Z" fill="#F3F8FF"/>
<path d="M54.2602 20.9781C52.4001 20.9781 50.9533 20.3211 49.9198 19.0071C48.8863 17.693 48.3695 15.8442 48.3695 13.4604C48.3432 12.1242 48.6014 10.7976 49.1269 9.5688C49.574 8.51422 50.2985 7.60043 51.2232 6.92452C52.1265 6.28556 53.2101 5.95145 54.3163 5.97078C54.8669 5.9513 55.4134 6.07244 55.9042 6.32274C56.395 6.57304 56.8139 6.94427 57.1215 7.40139V2.26803L61.3291 0.397949V20.6509H57.1215V19.4447C56.6078 20.467 55.6541 20.9781 54.2602 20.9781ZM54.9896 16.9107C55.4337 16.9284 55.8773 16.8651 56.2986 16.7237C56.6239 16.5912 56.9089 16.3758 57.1252 16.0991V10.9358C56.8727 10.6421 56.5515 10.4153 56.1902 10.2757C55.8078 10.1172 55.3978 10.0365 54.984 10.0382C54.6386 10.0236 54.2951 10.0964 53.9852 10.2497C53.6754 10.403 53.4091 10.6319 53.2111 10.9153C52.791 11.4987 52.5803 12.3471 52.579 13.4604C52.5581 14.1136 52.6453 14.7657 52.8371 15.3904C52.9638 15.8528 53.2467 16.2571 53.6377 16.5346C54.0287 16.812 54.5038 16.9456 54.9821 16.9126L54.9896 16.9107Z" fill="#F3F8FF"/>
<path d="M70.2776 20.9784C68.8563 20.9784 67.6339 20.6792 66.6104 20.0808C65.5821 19.4786 64.7605 18.5788 64.2541 17.5001C63.7055 16.378 63.4319 15.0316 63.4331 13.4607C63.4331 11.936 63.7111 10.6126 64.2672 9.49055C64.7862 8.41024 65.6106 7.50583 66.6384 6.88928C67.6607 6.27838 68.8738 5.97232 70.2776 5.97107C71.4169 5.95355 72.5441 6.20604 73.5671 6.70788C74.5509 7.20513 75.3622 7.98711 75.8953 8.95197C76.4688 9.95682 76.7562 11.226 76.7574 12.7594C76.7574 13.0213 76.7574 13.3467 76.7424 13.7338C76.7335 14.1212 76.701 14.5078 76.6452 14.8913H67.5286C67.5168 15.36 67.6332 15.8229 67.8652 16.2303C68.0899 16.6101 68.4217 16.9152 68.8189 17.1074C69.2744 17.3227 69.7739 17.4284 70.2776 17.4159C70.9064 17.4357 71.5317 17.3156 72.1084 17.0644C72.6598 16.7818 73.1448 16.3853 73.5315 15.9012L75.9439 18.3136C75.2829 19.115 74.4668 19.7746 73.5446 20.2528C72.5303 20.7554 71.4093 21.0044 70.2776 20.9784ZM67.5847 11.7496H72.7461C72.6917 11.3115 72.543 10.8905 72.3104 10.5154C72.1012 10.1941 71.8047 9.93915 71.4557 9.78041C71.0482 9.60704 70.6081 9.52349 70.1654 9.53543C69.5377 9.51637 68.9244 9.72567 68.4393 10.1245C67.9603 10.5395 67.6551 11.1197 67.5847 11.7496Z" fill="#F3F8FF"/>
<path d="M110.335 20.9782C108.277 20.9782 106.657 20.3118 105.472 18.9791C104.288 17.6463 103.694 15.8161 103.69 13.4885C103.69 11.9551 103.961 10.6248 104.504 9.49777C105.001 8.42206 105.802 7.51524 106.808 6.88902C107.874 6.25814 109.096 5.93995 110.335 5.97081C111.564 5.93986 112.777 6.25825 113.833 6.88902C114.832 7.51542 115.627 8.41936 116.121 9.49029C116.657 10.6123 116.925 11.9451 116.927 13.4885C116.928 15.032 116.664 16.3666 116.134 17.4923C115.65 18.5574 114.858 19.4535 113.862 20.0656C112.877 20.6752 111.701 20.9794 110.335 20.9782ZM110.335 16.9108C110.684 16.9264 111.031 16.8529 111.344 16.6972C111.657 16.5415 111.925 16.3086 112.122 16.0206C112.54 15.4259 112.748 14.5819 112.747 13.4885C112.746 12.3951 112.536 11.5468 112.119 10.9433C111.914 10.6615 111.645 10.4325 111.335 10.2752C111.024 10.1179 110.68 10.0369 110.332 10.0389C109.984 10.0409 109.641 10.1259 109.332 10.2867C109.023 10.4476 108.757 10.6797 108.556 10.9639C108.121 11.5873 107.903 12.4288 107.903 13.4885C107.903 14.5482 108.121 15.3848 108.556 15.9982C108.752 16.2874 109.018 16.5227 109.329 16.6822C109.639 16.8417 109.985 16.9203 110.335 16.9108Z" fill="#F3F8FF"/>
<path d="M123.266 20.9781C121.685 20.9781 120.435 20.5598 119.515 19.7232C118.595 18.8867 118.134 17.7647 118.133 16.3571C118.118 15.4896 118.375 14.6392 118.87 13.926C119.388 13.2022 120.097 12.6364 120.917 12.2916C121.882 11.8865 122.921 11.6884 123.967 11.71C124.543 11.71 125.117 11.7544 125.686 11.8427C126.165 11.9092 126.633 12.0349 127.081 12.2168V11.3846C127.097 11.1157 127.048 10.847 126.94 10.6005C126.831 10.3541 126.665 10.137 126.456 9.96706C126.041 9.63543 125.455 9.46962 124.697 9.46962C123.954 9.47354 123.217 9.5999 122.516 9.84363C121.688 10.1428 120.897 10.5375 120.16 11.0199L118.87 7.79403C119.775 7.19743 120.766 6.74098 121.807 6.4401C122.876 6.12788 123.984 5.96982 125.097 5.97071C127.163 5.97071 128.708 6.44072 129.733 7.38074C130.758 8.32077 131.269 9.73018 131.268 11.609V20.6415H127.079V19.6036C126.627 20.0662 126.072 20.4165 125.46 20.6265C124.754 20.8695 124.012 20.9884 123.266 20.9781ZM124.36 17.4717C124.863 17.4748 125.364 17.392 125.839 17.2267C126.293 17.0662 126.713 16.8241 127.079 16.5123V15.3342C126.711 15.1973 126.33 15.0983 125.942 15.0387C125.52 14.9727 125.094 14.9402 124.667 14.9415C123.909 14.9415 123.317 15.0605 122.892 15.2986C122.7 15.3904 122.539 15.5347 122.426 15.7148C122.313 15.8949 122.253 16.1034 122.254 16.316C122.255 16.4949 122.306 16.67 122.403 16.8205C122.5 16.971 122.638 17.0905 122.8 17.165C123.167 17.3694 123.687 17.4717 124.36 17.4717Z" fill="#F3F8FF"/>
<path d="M149.073 20.9781C147.212 20.9781 145.765 20.3211 144.733 19.0071C143.7 17.693 143.184 15.8442 143.182 13.4604C143.153 12.1249 143.408 10.7983 143.93 9.5688C144.378 8.51422 145.102 7.60043 146.027 6.92452C146.93 6.28532 148.014 5.95119 149.12 5.97078C149.671 5.9513 150.217 6.07244 150.708 6.32274C151.199 6.57304 151.618 6.94427 151.925 7.40139V2.26803L156.133 0.397949V20.6509H151.925V19.4447C151.418 20.467 150.467 20.9781 149.073 20.9781ZM149.803 16.9107C150.247 16.9287 150.69 16.8653 151.112 16.7237C151.437 16.5912 151.723 16.3759 151.94 16.0991V10.9358C151.691 10.6436 151.373 10.4169 151.016 10.2757C150.634 10.1172 150.224 10.0365 149.81 10.0382C149.462 10.0214 149.116 10.0931 148.804 10.2464C148.492 10.3998 148.223 10.6299 148.024 10.9153C147.604 11.4987 147.394 12.3471 147.394 13.4604C147.372 14.1135 147.459 14.7655 147.65 15.3904C147.777 15.8527 148.061 16.2569 148.452 16.5343C148.843 16.8117 149.318 16.9454 149.797 16.9126L149.803 16.9107Z" fill="#F3F8FF"/>
<path d="M163.92 20.9782C162.742 20.9833 161.578 20.7278 160.511 20.2302C159.5 19.7846 158.623 19.0833 157.965 18.1956L160.63 15.9515C161.103 16.4322 161.659 16.8243 162.27 17.109C162.825 17.3854 163.433 17.5361 164.052 17.5504C164.54 17.5771 165.026 17.4833 165.468 17.2773C165.617 17.2059 165.743 17.0933 165.83 16.9528C165.917 16.8123 165.962 16.6498 165.96 16.4844C165.957 16.2732 165.871 16.0715 165.721 15.9234C165.455 15.6838 165.148 15.4938 164.815 15.3624C164.372 15.1604 163.725 14.9055 162.874 14.5975C161.239 14.0178 160.091 13.3863 159.431 12.7031C158.772 12.0199 158.443 11.141 158.444 10.0663C158.432 9.48733 158.562 8.91418 158.823 8.3971C159.084 7.88002 159.467 7.43478 159.94 7.10039C160.938 6.35236 162.235 5.97835 163.834 5.97835C164.871 5.96864 165.898 6.17898 166.848 6.59547C167.773 7.00605 168.593 7.61967 169.248 8.39075L166.555 10.6068C165.723 9.80265 164.788 9.40059 163.749 9.40059C163.361 9.38687 162.975 9.47112 162.627 9.64557C162.332 9.81014 162.186 10.0196 162.186 10.2702C162.186 10.5208 162.373 10.7695 162.725 10.9845C163.076 11.1996 163.776 11.4577 164.795 11.7569C165.776 12.0161 166.719 12.4028 167.6 12.907C168.254 13.2786 168.804 13.8092 169.199 14.4498C169.549 15.0746 169.726 15.7815 169.711 16.4975C169.711 17.9001 169.197 18.9984 168.168 19.7926C167.14 20.5868 165.724 20.982 163.92 20.9782Z" fill="#F3F8FF"/>
<path d="M173.253 20.9782C172.918 20.9882 172.584 20.9313 172.271 20.8109C171.958 20.6905 171.672 20.509 171.43 20.2769C171.189 20.0455 171 19.7661 170.874 19.4568C170.749 19.1475 170.69 18.8153 170.701 18.4817C170.697 18.1465 170.761 17.814 170.888 17.504C171.015 17.1939 171.204 16.9126 171.442 16.6766C171.68 16.4406 171.963 16.2549 172.274 16.1303C172.585 16.0058 172.918 15.9449 173.253 15.9515C173.593 15.943 173.932 16.0039 174.247 16.1306C174.563 16.2573 174.85 16.4471 175.09 16.6883C175.33 16.9191 175.521 17.1969 175.649 17.5044C175.778 17.812 175.842 18.1427 175.838 18.4761C175.848 18.8113 175.786 19.1448 175.657 19.4543C175.528 19.7639 175.335 20.0424 175.09 20.2713C174.595 20.741 173.935 20.9952 173.253 20.9782Z" fill="#F3F8FF"/>
<path d="M182.527 26.6111L180.096 22.9925C181.177 22.928 182.253 22.7874 183.314 22.5717C184.031 22.4034 184.504 22.1678 184.737 21.863C184.991 21.4953 185.114 21.0538 185.089 20.6081V20.1593C184.453 20.7016 183.565 20.9728 182.424 20.9728C181.134 20.9728 180.035 20.6779 179.127 20.0883C178.191 19.464 177.467 18.5689 177.053 17.5225C176.575 16.4005 176.336 15.0447 176.337 13.4551C176.304 12.1029 176.559 10.7591 177.085 9.51297C177.534 8.45823 178.27 7.55095 179.21 6.89486C180.157 6.26137 181.276 5.93489 182.415 5.95983C182.94 5.95181 183.464 6.02756 183.965 6.18423C184.389 6.31326 184.774 6.54446 185.087 6.85746V6.29644H189.295V18.7568C189.317 19.9565 189.211 21.1551 188.979 22.3323C188.82 23.1795 188.451 23.9731 187.905 24.64C187.348 25.2599 186.633 25.7179 185.837 25.9659C184.762 26.3057 183.651 26.5221 182.527 26.6111ZM183.032 16.9054C183.414 16.9134 183.795 16.85 184.154 16.7184C184.497 16.5832 184.812 16.3832 185.08 16.1293V10.88C184.84 10.6166 184.546 10.4085 184.218 10.2704C183.871 10.1164 183.495 10.0374 183.116 10.0385C182.275 10.0385 181.634 10.3283 181.194 10.908C180.754 11.4878 180.534 12.3387 180.535 13.4607C180.518 14.1055 180.613 14.7485 180.816 15.3607C180.968 15.8231 181.26 16.2273 181.65 16.5183C182.058 16.7914 182.541 16.9288 183.032 16.911V16.9054Z" fill="#F3F8FF"/>
<path d="M197.239 26.6111L194.798 22.9925C195.88 22.9279 196.956 22.7873 198.019 22.5717C198.733 22.4034 199.207 22.1672 199.442 21.863C199.694 21.4951 199.817 21.0537 199.791 20.6082V20.1594C199.156 20.7017 198.267 20.9728 197.127 20.9728C195.836 20.9728 194.738 20.678 193.831 20.0883C192.895 19.4636 192.171 18.5687 191.756 17.5225C191.279 16.4005 191.041 15.0447 191.039 13.4551C191.006 12.1029 191.261 10.7591 191.787 9.51301C192.236 8.45777 192.973 7.55035 193.914 6.8949C194.86 6.2611 195.979 5.93458 197.117 5.95986C197.643 5.95184 198.166 6.0276 198.668 6.18427C199.091 6.3128 199.477 6.54407 199.79 6.8575V6.29647H203.997V18.7568C204.019 19.9564 203.913 21.1549 203.683 22.3324C203.523 23.179 203.154 23.9722 202.61 24.6401C202.052 25.2595 201.337 25.7174 200.541 25.9659C199.468 26.3048 198.36 26.5213 197.239 26.6111ZM197.744 16.9054C198.126 16.9135 198.507 16.85 198.866 16.7184C199.213 16.5843 199.53 16.3842 199.801 16.1293V10.88C199.562 10.6161 199.267 10.408 198.939 10.2704C198.592 10.1163 198.217 10.0372 197.837 10.0385C196.996 10.0385 196.355 10.3284 195.917 10.9081C195.478 11.4878 195.258 12.3387 195.256 13.4607C195.239 14.1056 195.334 14.7485 195.537 15.3607C195.689 15.8237 195.981 16.228 196.373 16.5183C196.777 16.7897 197.257 16.9271 197.744 16.911V16.9054Z" fill="#F3F8FF"/>
<path d="M16.9242 16.4451V0.388672L12.7166 2.2681V16.4451V20.6416V20.6528H18.8037L16.9242 16.4451Z" fill="#F3F8FF"/>
<path d="M11.2203 2.2998H5.61011V7.53602H11.2203V2.2998Z" fill="#CC5277"/>
<path d="M8.60184 15.3906H5.9849H3.36621V20.6268H5.9849H8.60184H11.2205V15.3906H8.60184Z" fill="#50CC9A"/>
<path d="M6.73258 9.03223H4.48788H2.24469H0V13.8944H2.24469H4.48788H6.73258H11.2205V9.03223H6.73258Z" fill="#FFCE78"/>
</svg>
